<svg xmlns="http://www.w3.org/2000/svg" xmlns:xlink="http://www.w3.org/1999/xlink" width="1250" zoomAndPan="magnify" viewBox="0 0 937.5 252.749989" height="337" preserveAspectRatio="xMidYMid meet" version="1.0"><defs><g/></defs><g fill="#ffffff" fill-opacity="1"><g transform="translate(58.796133, 101.524572)"><g><path d="M 30.921875 -34.421875 C 33.890625 -34.421875 36.164062 -35.109375 37.75 -36.484375 C 39.332031 -37.859375 40.125 -39.957031 40.125 -42.78125 C 40.125 -45.457031 39.296875 -47.519531 37.640625 -48.96875 C 35.984375 -50.414062 33.566406 -51.140625 30.390625 -51.140625 C 29.265625 -51.140625 28.328125 -51.125 27.578125 -51.09375 C 26.835938 -51.0625 26.082031 -50.972656 25.3125 -50.828125 L 25.3125 -34.421875 Z M 25.40625 -0.421875 C 24.632812 -0.210938 23.414062 -0.00390625 21.75 0.203125 C 20.09375 0.421875 18.457031 0.53125 16.84375 0.53125 C 15.21875 0.53125 13.785156 0.40625 12.546875 0.15625 C 11.304688 -0.09375 10.265625 -0.535156 9.421875 -1.171875 C 8.578125 -1.804688 7.941406 -2.6875 7.515625 -3.8125 C 7.097656 -4.9375 6.890625 -6.421875 6.890625 -8.265625 L 6.890625 -58.140625 C 6.890625 -59.617188 7.289062 -60.765625 8.09375 -61.578125 C 8.90625 -62.390625 10.019531 -63.039062 11.4375 -63.53125 C 13.832031 -64.382812 16.566406 -65.003906 19.640625 -65.390625 C 22.710938 -65.773438 25.800781 -65.96875 28.90625 -65.96875 C 38.644531 -65.96875 46.09375 -63.882812 51.25 -59.71875 C 56.40625 -55.550781 58.984375 -49.90625 58.984375 -42.78125 C 58.984375 -39.320312 58.4375 -36.195312 57.34375 -33.40625 C 56.25 -30.613281 54.625 -28.210938 52.46875 -26.203125 C 50.3125 -24.191406 47.59375 -22.640625 44.3125 -21.546875 C 41.03125 -20.453125 37.238281 -19.90625 32.9375 -19.90625 L 25.40625 -19.90625 Z M 25.40625 -0.421875 "/></g></g></g><g fill="#ffffff" fill-opacity="1"><g transform="translate(118.723967, 101.524572)"><g><path d="M 32.71875 1.6875 C 28.550781 1.6875 24.6875 1.109375 21.125 -0.046875 C 17.5625 -1.210938 14.453125 -2.957031 11.796875 -5.28125 C 9.148438 -7.613281 7.066406 -10.546875 5.546875 -14.078125 C 4.035156 -17.609375 3.28125 -21.738281 3.28125 -26.46875 C 3.28125 -31.132812 4.035156 -35.140625 5.546875 -38.484375 C 7.066406 -41.835938 9.0625 -44.59375 11.53125 -46.75 C 14.007812 -48.90625 16.835938 -50.492188 20.015625 -51.515625 C 23.191406 -52.535156 26.4375 -53.046875 29.75 -53.046875 C 33.5 -53.046875 36.90625 -52.476562 39.96875 -51.34375 C 43.039062 -50.21875 45.6875 -48.664062 47.90625 -46.6875 C 50.132812 -44.71875 51.863281 -42.351562 53.09375 -39.59375 C 54.332031 -36.84375 54.953125 -33.847656 54.953125 -30.609375 C 54.953125 -28.203125 54.28125 -26.363281 52.9375 -25.09375 C 51.601562 -23.820312 49.734375 -23.007812 47.328125 -22.65625 L 21.171875 -18.75 C 21.953125 -16.414062 23.539062 -14.664062 25.9375 -13.5 C 28.34375 -12.332031 31.097656 -11.75 34.203125 -11.75 C 37.097656 -11.75 39.832031 -12.117188 42.40625 -12.859375 C 44.988281 -13.609375 47.085938 -14.472656 48.703125 -15.453125 C 49.835938 -14.753906 50.789062 -13.769531 51.5625 -12.5 C 52.34375 -11.226562 52.734375 -9.882812 52.734375 -8.46875 C 52.734375 -5.289062 51.25 -2.925781 48.28125 -1.375 C 46.019531 -0.175781 43.476562 0.628906 40.65625 1.046875 C 37.832031 1.472656 35.1875 1.6875 32.71875 1.6875 Z M 29.75 -39.921875 C 28.0625 -39.921875 26.597656 -39.632812 25.359375 -39.0625 C 24.117188 -38.5 23.109375 -37.773438 22.328125 -36.890625 C 21.554688 -36.015625 20.976562 -35.03125 20.59375 -33.9375 C 20.207031 -32.84375 19.976562 -31.734375 19.90625 -30.609375 L 38.015625 -33.5625 C 37.804688 -34.976562 37.03125 -36.390625 35.6875 -37.796875 C 34.34375 -39.210938 32.363281 -39.921875 29.75 -39.921875 Z M 29.75 -39.921875 "/></g></g></g><g fill="#ffffff" fill-opacity="1"><g transform="translate(176.851925, 101.524572)"><g><path d="M 58.765625 -25.734375 C 58.765625 -21.359375 58.09375 -17.457031 56.75 -14.03125 C 55.414062 -10.601562 53.53125 -7.722656 51.09375 -5.390625 C 48.65625 -3.066406 45.742188 -1.304688 42.359375 -0.109375 C 38.972656 1.085938 35.195312 1.6875 31.03125 1.6875 C 26.863281 1.6875 23.082031 1.050781 19.6875 -0.21875 C 16.300781 -1.488281 13.390625 -3.304688 10.953125 -5.671875 C 8.523438 -8.035156 6.640625 -10.910156 5.296875 -14.296875 C 3.953125 -17.679688 3.28125 -21.492188 3.28125 -25.734375 C 3.28125 -29.898438 3.953125 -33.675781 5.296875 -37.0625 C 6.640625 -40.445312 8.523438 -43.320312 10.953125 -45.6875 C 13.390625 -48.050781 16.300781 -49.867188 19.6875 -51.140625 C 23.082031 -52.410156 26.863281 -53.046875 31.03125 -53.046875 C 35.195312 -53.046875 38.972656 -52.394531 42.359375 -51.09375 C 45.742188 -49.789062 48.65625 -47.953125 51.09375 -45.578125 C 53.53125 -43.210938 55.414062 -40.335938 56.75 -36.953125 C 58.09375 -33.566406 58.765625 -29.828125 58.765625 -25.734375 Z M 21.703125 -25.734375 C 21.703125 -21.421875 22.53125 -18.117188 24.1875 -15.828125 C 25.851562 -13.535156 28.164062 -12.390625 31.125 -12.390625 C 34.09375 -12.390625 36.367188 -13.550781 37.953125 -15.875 C 39.546875 -18.207031 40.34375 -21.492188 40.34375 -25.734375 C 40.34375 -29.960938 39.53125 -33.222656 37.90625 -35.515625 C 36.28125 -37.816406 33.988281 -38.96875 31.03125 -38.96875 C 28.0625 -38.96875 25.765625 -37.816406 24.140625 -35.515625 C 22.515625 -33.222656 21.703125 -29.960938 21.703125 -25.734375 Z M 21.703125 -25.734375 "/></g></g></g><g fill="#ffffff" fill-opacity="1"><g transform="translate(238.897441, 101.524572)"><g><path d="M 29.125 -53.046875 C 33.351562 -53.046875 37.285156 -52.5 40.921875 -51.40625 C 44.554688 -50.3125 47.679688 -48.632812 50.296875 -46.375 C 52.910156 -44.113281 54.957031 -41.269531 56.4375 -37.84375 C 57.914062 -34.425781 58.65625 -30.351562 58.65625 -25.625 C 58.65625 -21.101562 58.019531 -17.148438 56.75 -13.765625 C 55.476562 -10.378906 53.675781 -7.535156 51.34375 -5.234375 C 49.019531 -2.941406 46.21875 -1.226562 42.9375 -0.09375 C 39.65625 1.03125 36.003906 1.59375 31.984375 1.59375 C 28.941406 1.59375 26.113281 1.132812 23.5 0.21875 L 23.5 17.796875 C 22.800781 18.003906 21.675781 18.226562 20.125 18.46875 C 18.570312 18.71875 16.984375 18.84375 15.359375 18.84375 C 13.804688 18.84375 12.410156 18.738281 11.171875 18.53125 C 9.929688 18.320312 8.890625 17.898438 8.046875 17.265625 C 7.203125 16.628906 6.566406 15.765625 6.140625 14.671875 C 5.710938 13.578125 5.5 12.144531 5.5 10.375 L 5.5 -40.453125 C 5.5 -42.359375 5.90625 -43.910156 6.71875 -45.109375 C 7.53125 -46.304688 8.644531 -47.398438 10.0625 -48.390625 C 12.25 -49.804688 14.960938 -50.9375 18.203125 -51.78125 C 21.453125 -52.625 25.09375 -53.046875 29.125 -53.046875 Z M 29.328125 -12.59375 C 36.597656 -12.59375 40.234375 -16.9375 40.234375 -25.625 C 40.234375 -30.144531 39.332031 -33.5 37.53125 -35.6875 C 35.738281 -37.875 33.144531 -38.96875 29.75 -38.96875 C 28.414062 -38.96875 27.21875 -38.804688 26.15625 -38.484375 C 25.09375 -38.171875 24.175781 -37.800781 23.40625 -37.375 L 23.40625 -14.078125 C 24.25 -13.660156 25.164062 -13.304688 26.15625 -13.015625 C 27.144531 -12.734375 28.203125 -12.59375 29.328125 -12.59375 Z M 29.328125 -12.59375 "/></g></g></g><g fill="#ffffff" fill-opacity="1"><g transform="translate(300.837078, 101.524572)"><g><path d="M 23.828125 -0.109375 C 23.046875 0.0351562 21.894531 0.226562 20.375 0.46875 C 18.863281 0.71875 17.332031 0.84375 15.78125 0.84375 C 14.226562 0.84375 12.832031 0.738281 11.59375 0.53125 C 10.351562 0.320312 9.3125 -0.0976562 8.46875 -0.734375 C 7.625 -1.367188 6.972656 -2.234375 6.515625 -3.328125 C 6.054688 -4.429688 5.828125 -5.863281 5.828125 -7.625 L 5.828125 -69.046875 C 6.597656 -69.179688 7.742188 -69.375 9.265625 -69.625 C 10.785156 -69.875 12.320312 -70 13.875 -70 C 15.425781 -70 16.816406 -69.890625 18.046875 -69.671875 C 19.285156 -69.460938 20.328125 -69.039062 21.171875 -68.40625 C 22.023438 -67.769531 22.679688 -66.90625 23.140625 -65.8125 C 23.597656 -64.71875 23.828125 -63.285156 23.828125 -61.515625 Z M 23.828125 -0.109375 "/></g></g></g><g fill="#ffffff" fill-opacity="1"><g transform="translate(330.483403, 101.524572)"><g><path d="M 32.71875 1.6875 C 28.550781 1.6875 24.6875 1.109375 21.125 -0.046875 C 17.5625 -1.210938 14.453125 -2.957031 11.796875 -5.28125 C 9.148438 -7.613281 7.066406 -10.546875 5.546875 -14.078125 C 4.035156 -17.609375 3.28125 -21.738281 3.28125 -26.46875 C 3.28125 -31.132812 4.035156 -35.140625 5.546875 -38.484375 C 7.066406 -41.835938 9.0625 -44.59375 11.53125 -46.75 C 14.007812 -48.90625 16.835938 -50.492188 20.015625 -51.515625 C 23.191406 -52.535156 26.4375 -53.046875 29.75 -53.046875 C 33.5 -53.046875 36.90625 -52.476562 39.96875 -51.34375 C 43.039062 -50.21875 45.6875 -48.664062 47.90625 -46.6875 C 50.132812 -44.71875 51.863281 -42.351562 53.09375 -39.59375 C 54.332031 -36.84375 54.953125 -33.847656 54.953125 -30.609375 C 54.953125 -28.203125 54.28125 -26.363281 52.9375 -25.09375 C 51.601562 -23.820312 49.734375 -23.007812 47.328125 -22.65625 L 21.171875 -18.75 C 21.953125 -16.414062 23.539062 -14.664062 25.9375 -13.5 C 28.34375 -12.332031 31.097656 -11.75 34.203125 -11.75 C 37.097656 -11.75 39.832031 -12.117188 42.40625 -12.859375 C 44.988281 -13.609375 47.085938 -14.472656 48.703125 -15.453125 C 49.835938 -14.753906 50.789062 -13.769531 51.5625 -12.5 C 52.34375 -11.226562 52.734375 -9.882812 52.734375 -8.46875 C 52.734375 -5.289062 51.25 -2.925781 48.28125 -1.375 C 46.019531 -0.175781 43.476562 0.628906 40.65625 1.046875 C 37.832031 1.472656 35.1875 1.6875 32.71875 1.6875 Z M 29.75 -39.921875 C 28.0625 -39.921875 26.597656 -39.632812 25.359375 -39.0625 C 24.117188 -38.5 23.109375 -37.773438 22.328125 -36.890625 C 21.554688 -36.015625 20.976562 -35.03125 20.59375 -33.9375 C 20.207031 -32.84375 19.976562 -31.734375 19.90625 -30.609375 L 38.015625 -33.5625 C 37.804688 -34.976562 37.03125 -36.390625 35.6875 -37.796875 C 34.34375 -39.210938 32.363281 -39.921875 29.75 -39.921875 Z M 29.75 -39.921875 "/></g></g></g><g fill="#ffffff" fill-opacity="1"><g transform="translate(388.611373, 101.524572)"><g/></g></g><g fill="#ffffff" fill-opacity="1"><g transform="translate(409.78731, 101.524572)"><g><path d="M 49.453125 -40.03125 C 50.796875 -40.59375 52.046875 -40.992188 53.203125 -41.234375 C 54.367188 -41.484375 55.550781 -41.609375 56.75 -41.609375 C 58.445312 -41.609375 59.820312 -41.359375 60.875 -40.859375 C 61.9375 -40.367188 62.769531 -39.679688 63.375 -38.796875 C 63.976562 -37.921875 64.382812 -36.882812 64.59375 -35.6875 C 64.800781 -34.488281 64.90625 -33.179688 64.90625 -31.765625 C 64.90625 -26.046875 63.457031 -20.609375 60.5625 -15.453125 L 68.71875 -7.625 C 68.582031 -4.9375 67.664062 -2.742188 65.96875 -1.046875 C 64.269531 0.640625 62.257812 1.484375 59.9375 1.484375 C 57.113281 1.484375 54.359375 0.140625 51.671875 -2.546875 L 49.65625 -4.453125 C 47.050781 -2.546875 44.070312 -1.046875 40.71875 0.046875 C 37.363281 1.140625 33.640625 1.6875 29.546875 1.6875 C 25.378906 1.6875 21.707031 1.140625 18.53125 0.046875 C 15.351562 -1.046875 12.671875 -2.546875 10.484375 -4.453125 C 8.296875 -6.359375 6.632812 -8.597656 5.5 -11.171875 C 4.375 -13.742188 3.8125 -16.550781 3.8125 -19.59375 C 3.8125 -22.195312 4.195312 -24.523438 4.96875 -26.578125 C 5.75 -28.628906 6.773438 -30.429688 8.046875 -31.984375 C 9.316406 -33.535156 10.726562 -34.859375 12.28125 -35.953125 C 13.832031 -37.046875 15.421875 -37.945312 17.046875 -38.65625 C 15.640625 -40.34375 14.632812 -42.140625 14.03125 -44.046875 C 13.425781 -45.953125 13.125 -47.753906 13.125 -49.453125 C 13.125 -51.640625 13.582031 -53.6875 14.5 -55.59375 C 15.425781 -57.5 16.734375 -59.15625 18.421875 -60.5625 C 20.117188 -61.976562 22.179688 -63.070312 24.609375 -63.84375 C 27.046875 -64.625 29.820312 -65.015625 32.9375 -65.015625 C 37.382812 -65.015625 40.523438 -64.21875 42.359375 -62.625 C 44.191406 -61.039062 45.109375 -59.015625 45.109375 -56.546875 C 45.109375 -55.347656 44.878906 -54.179688 44.421875 -53.046875 C 43.960938 -51.921875 43.273438 -50.898438 42.359375 -49.984375 C 41.578125 -50.335938 40.675781 -50.617188 39.65625 -50.828125 C 38.632812 -51.035156 37.554688 -51.140625 36.421875 -51.140625 C 34.585938 -51.140625 33.070312 -50.859375 31.875 -50.296875 C 30.675781 -49.734375 30.078125 -48.710938 30.078125 -47.234375 C 30.078125 -46.171875 30.535156 -45.09375 31.453125 -44 C 32.367188 -42.90625 33.5 -41.6875 34.84375 -40.34375 L 48.390625 -27.21875 C 48.742188 -28.769531 49.007812 -30.601562 49.1875 -32.71875 C 49.363281 -34.832031 49.453125 -37.269531 49.453125 -40.03125 Z M 20.75 -20.75 C 20.75 -18.28125 21.578125 -16.21875 23.234375 -14.5625 C 24.898438 -12.90625 27.359375 -12.078125 30.609375 -12.078125 C 32.015625 -12.078125 33.492188 -12.269531 35.046875 -12.65625 C 36.597656 -13.039062 38.082031 -13.691406 39.5 -14.609375 L 25.9375 -28.265625 C 24.25 -27.492188 22.960938 -26.4375 22.078125 -25.09375 C 21.191406 -23.75 20.75 -22.300781 20.75 -20.75 Z M 20.75 -20.75 "/></g></g></g><g fill="#ffffff" fill-opacity="1"><g transform="translate(481.044368, 101.524572)"><g/></g></g><g fill="#ffffff" fill-opacity="1"><g transform="translate(502.220304, 101.524572)"><g><path d="M 39.609375 -51.25 C 34.171875 -51.25 30.003906 -49.585938 27.109375 -46.265625 C 24.210938 -42.953125 22.765625 -38.257812 22.765625 -32.1875 C 22.765625 -26.050781 24.367188 -21.320312 27.578125 -18 C 30.796875 -14.6875 35.125 -13.03125 40.5625 -13.03125 C 43.445312 -13.03125 45.894531 -13.414062 47.90625 -14.1875 C 49.925781 -14.96875 51.851562 -15.851562 53.6875 -16.84375 C 54.882812 -15.851562 55.816406 -14.664062 56.484375 -13.28125 C 57.160156 -11.90625 57.5 -10.300781 57.5 -8.46875 C 57.5 -5.570312 55.890625 -3.117188 52.671875 -1.109375 C 49.460938 0.898438 44.578125 1.90625 38.015625 1.90625 C 33.285156 1.90625 28.835938 1.234375 24.671875 -0.109375 C 20.503906 -1.453125 16.867188 -3.515625 13.765625 -6.296875 C 10.660156 -9.085938 8.207031 -12.617188 6.40625 -16.890625 C 4.601562 -21.160156 3.703125 -26.257812 3.703125 -32.1875 C 3.703125 -37.695312 4.566406 -42.550781 6.296875 -46.75 C 8.023438 -50.945312 10.390625 -54.492188 13.390625 -57.390625 C 16.390625 -60.285156 19.898438 -62.472656 23.921875 -63.953125 C 27.953125 -65.441406 32.257812 -66.1875 36.84375 -66.1875 C 43.34375 -66.1875 48.375 -65.125 51.9375 -63 C 55.5 -60.882812 57.28125 -58.164062 57.28125 -54.84375 C 57.28125 -53.007812 56.820312 -51.421875 55.90625 -50.078125 C 54.988281 -48.742188 53.929688 -47.6875 52.734375 -46.90625 C 50.898438 -48.101562 48.941406 -49.125 46.859375 -49.96875 C 44.773438 -50.820312 42.359375 -51.25 39.609375 -51.25 Z M 39.609375 -51.25 "/></g></g></g><g fill="#ffffff" fill-opacity="1"><g transform="translate(562.148206, 101.524572)"><g><path d="M 5.5 -50.71875 C 6.207031 -50.9375 7.320312 -51.148438 8.84375 -51.359375 C 10.363281 -51.566406 11.929688 -51.671875 13.546875 -51.671875 C 15.109375 -51.671875 16.503906 -51.566406 17.734375 -51.359375 C 18.972656 -51.148438 20.015625 -50.726562 20.859375 -50.09375 C 21.703125 -49.457031 22.351562 -48.585938 22.8125 -47.484375 C 23.269531 -46.390625 23.5 -44.960938 23.5 -43.203125 L 23.5 -20.4375 C 23.5 -17.539062 24.207031 -15.472656 25.625 -14.234375 C 27.039062 -13.003906 29.085938 -12.390625 31.765625 -12.390625 C 33.390625 -12.390625 34.710938 -12.53125 35.734375 -12.8125 C 36.765625 -13.09375 37.5625 -13.375 38.125 -13.65625 L 38.125 -50.71875 C 38.820312 -50.9375 39.929688 -51.148438 41.453125 -51.359375 C 42.972656 -51.566406 44.546875 -51.671875 46.171875 -51.671875 C 47.722656 -51.671875 49.113281 -51.566406 50.34375 -51.359375 C 51.582031 -51.148438 52.625 -50.726562 53.46875 -50.09375 C 54.320312 -49.457031 54.976562 -48.585938 55.4375 -47.484375 C 55.894531 -46.390625 56.125 -44.960938 56.125 -43.203125 L 56.125 -11.015625 C 56.125 -7.484375 54.640625 -4.835938 51.671875 -3.078125 C 49.203125 -1.515625 46.253906 -0.332031 42.828125 0.46875 C 39.410156 1.28125 35.6875 1.6875 31.65625 1.6875 C 27.84375 1.6875 24.332031 1.265625 21.125 0.421875 C 17.914062 -0.421875 15.144531 -1.722656 12.8125 -3.484375 C 10.476562 -5.253906 8.675781 -7.53125 7.40625 -10.3125 C 6.132812 -13.101562 5.5 -16.476562 5.5 -20.4375 Z M 5.5 -50.71875 "/></g></g></g><g fill="#ffffff" fill-opacity="1"><g transform="translate(623.770171, 101.524572)"><g><path d="M 23.828125 -0.109375 C 23.046875 0.0351562 21.894531 0.226562 20.375 0.46875 C 18.863281 0.71875 17.332031 0.84375 15.78125 0.84375 C 14.226562 0.84375 12.832031 0.738281 11.59375 0.53125 C 10.351562 0.320312 9.3125 -0.0976562 8.46875 -0.734375 C 7.625 -1.367188 6.972656 -2.234375 6.515625 -3.328125 C 6.054688 -4.429688 5.828125 -5.863281 5.828125 -7.625 L 5.828125 -69.046875 C 6.597656 -69.179688 7.742188 -69.375 9.265625 -69.625 C 10.785156 -69.875 12.320312 -70 13.875 -70 C 15.425781 -70 16.816406 -69.890625 18.046875 -69.671875 C 19.285156 -69.460938 20.328125 -69.039062 21.171875 -68.40625 C 22.023438 -67.769531 22.679688 -66.90625 23.140625 -65.8125 C 23.597656 -64.71875 23.828125 -63.285156 23.828125 -61.515625 Z M 23.828125 -0.109375 "/></g></g></g><g fill="#ffffff" fill-opacity="1"><g transform="translate(653.41652, 101.524572)"><g><path d="M 23.5 -17.6875 C 23.5 -15.851562 24.082031 -14.546875 25.25 -13.765625 C 26.414062 -12.984375 28.054688 -12.59375 30.171875 -12.59375 C 31.234375 -12.59375 32.328125 -12.679688 33.453125 -12.859375 C 34.585938 -13.035156 35.578125 -13.265625 36.421875 -13.546875 C 37.054688 -12.773438 37.601562 -11.910156 38.0625 -10.953125 C 38.519531 -10.003906 38.75 -8.859375 38.75 -7.515625 C 38.75 -4.835938 37.742188 -2.648438 35.734375 -0.953125 C 33.722656 0.742188 30.175781 1.59375 25.09375 1.59375 C 18.882812 1.59375 14.101562 0.179688 10.75 -2.640625 C 7.394531 -5.472656 5.71875 -10.0625 5.71875 -16.40625 L 5.71875 -61.734375 C 6.5 -61.941406 7.609375 -62.171875 9.046875 -62.421875 C 10.492188 -62.671875 12.03125 -62.796875 13.65625 -62.796875 C 16.757812 -62.796875 19.175781 -62.25 20.90625 -61.15625 C 22.632812 -60.0625 23.5 -57.75 23.5 -54.21875 L 23.5 -47.4375 L 37.375 -47.4375 C 37.800781 -46.664062 38.207031 -45.695312 38.59375 -44.53125 C 38.976562 -43.363281 39.171875 -42.070312 39.171875 -40.65625 C 39.171875 -38.1875 38.625 -36.40625 37.53125 -35.3125 C 36.4375 -34.21875 34.972656 -33.671875 33.140625 -33.671875 L 23.5 -33.671875 Z M 23.5 -17.6875 "/></g></g></g><g fill="#ffffff" fill-opacity="1"><g transform="translate(695.768393, 101.524572)"><g><path d="M 5.5 -50.71875 C 6.207031 -50.9375 7.320312 -51.148438 8.84375 -51.359375 C 10.363281 -51.566406 11.929688 -51.671875 13.546875 -51.671875 C 15.109375 -51.671875 16.503906 -51.566406 17.734375 -51.359375 C 18.972656 -51.148438 20.015625 -50.726562 20.859375 -50.09375 C 21.703125 -49.457031 22.351562 -48.585938 22.8125 -47.484375 C 23.269531 -46.390625 23.5 -44.960938 23.5 -43.203125 L 23.5 -20.4375 C 23.5 -17.539062 24.207031 -15.472656 25.625 -14.234375 C 27.039062 -13.003906 29.085938 -12.390625 31.765625 -12.390625 C 33.390625 -12.390625 34.710938 -12.53125 35.734375 -12.8125 C 36.765625 -13.09375 37.5625 -13.375 38.125 -13.65625 L 38.125 -50.71875 C 38.820312 -50.9375 39.929688 -51.148438 41.453125 -51.359375 C 42.972656 -51.566406 44.546875 -51.671875 46.171875 -51.671875 C 47.722656 -51.671875 49.113281 -51.566406 50.34375 -51.359375 C 51.582031 -51.148438 52.625 -50.726562 53.46875 -50.09375 C 54.320312 -49.457031 54.976562 -48.585938 55.4375 -47.484375 C 55.894531 -46.390625 56.125 -44.960938 56.125 -43.203125 L 56.125 -11.015625 C 56.125 -7.484375 54.640625 -4.835938 51.671875 -3.078125 C 49.203125 -1.515625 46.253906 -0.332031 42.828125 0.46875 C 39.410156 1.28125 35.6875 1.6875 31.65625 1.6875 C 27.84375 1.6875 24.332031 1.265625 21.125 0.421875 C 17.914062 -0.421875 15.144531 -1.722656 12.8125 -3.484375 C 10.476562 -5.253906 8.675781 -7.53125 7.40625 -10.3125 C 6.132812 -13.101562 5.5 -16.476562 5.5 -20.4375 Z M 5.5 -50.71875 "/></g></g></g><g fill="#ffffff" fill-opacity="1"><g transform="translate(757.390358, 101.524572)"><g><path d="M 23.5 -0.109375 C 22.800781 0.109375 21.691406 0.320312 20.171875 0.53125 C 18.648438 0.738281 17.078125 0.84375 15.453125 0.84375 C 13.898438 0.84375 12.503906 0.738281 11.265625 0.53125 C 10.035156 0.320312 9 -0.0976562 8.15625 -0.734375 C 7.3125 -1.367188 6.65625 -2.234375 6.1875 -3.328125 C 5.726562 -4.429688 5.5 -5.863281 5.5 -7.625 L 5.5 -39.390625 C 5.5 -41.015625 5.800781 -42.410156 6.40625 -43.578125 C 7.007812 -44.742188 7.875 -45.785156 9 -46.703125 C 10.125 -47.617188 11.515625 -48.445312 13.171875 -49.1875 C 14.835938 -49.925781 16.625 -50.578125 18.53125 -51.140625 C 20.4375 -51.710938 22.410156 -52.15625 24.453125 -52.46875 C 26.503906 -52.78125 28.554688 -52.9375 30.609375 -52.9375 C 33.992188 -52.9375 36.671875 -52.285156 38.640625 -50.984375 C 40.617188 -49.679688 41.609375 -47.546875 41.609375 -44.578125 C 41.609375 -43.585938 41.46875 -42.613281 41.1875 -41.65625 C 40.90625 -40.707031 40.550781 -39.847656 40.125 -39.078125 C 38.644531 -39.078125 37.128906 -39.003906 35.578125 -38.859375 C 34.023438 -38.722656 32.503906 -38.507812 31.015625 -38.21875 C 29.535156 -37.9375 28.144531 -37.632812 26.84375 -37.3125 C 25.539062 -37 24.425781 -36.632812 23.5 -36.21875 Z M 23.5 -0.109375 "/></g></g></g><g fill="#ffffff" fill-opacity="1"><g transform="translate(798.895108, 101.524572)"><g><path d="M 32.71875 1.6875 C 28.550781 1.6875 24.6875 1.109375 21.125 -0.046875 C 17.5625 -1.210938 14.453125 -2.957031 11.796875 -5.28125 C 9.148438 -7.613281 7.066406 -10.546875 5.546875 -14.078125 C 4.035156 -17.609375 3.28125 -21.738281 3.28125 -26.46875 C 3.28125 -31.132812 4.035156 -35.140625 5.546875 -38.484375 C 7.066406 -41.835938 9.0625 -44.59375 11.53125 -46.75 C 14.007812 -48.90625 16.835938 -50.492188 20.015625 -51.515625 C 23.191406 -52.535156 26.4375 -53.046875 29.75 -53.046875 C 33.5 -53.046875 36.90625 -52.476562 39.96875 -51.34375 C 43.039062 -50.21875 45.6875 -48.664062 47.90625 -46.6875 C 50.132812 -44.71875 51.863281 -42.351562 53.09375 -39.59375 C 54.332031 -36.84375 54.953125 -33.847656 54.953125 -30.609375 C 54.953125 -28.203125 54.28125 -26.363281 52.9375 -25.09375 C 51.601562 -23.820312 49.734375 -23.007812 47.328125 -22.65625 L 21.171875 -18.75 C 21.953125 -16.414062 23.539062 -14.664062 25.9375 -13.5 C 28.34375 -12.332031 31.097656 -11.75 34.203125 -11.75 C 37.097656 -11.75 39.832031 -12.117188 42.40625 -12.859375 C 44.988281 -13.609375 47.085938 -14.472656 48.703125 -15.453125 C 49.835938 -14.753906 50.789062 -13.769531 51.5625 -12.5 C 52.34375 -11.226562 52.734375 -9.882812 52.734375 -8.46875 C 52.734375 -5.289062 51.25 -2.925781 48.28125 -1.375 C 46.019531 -0.175781 43.476562 0.628906 40.65625 1.046875 C 37.832031 1.472656 35.1875 1.6875 32.71875 1.6875 Z M 29.75 -39.921875 C 28.0625 -39.921875 26.597656 -39.632812 25.359375 -39.0625 C 24.117188 -38.5 23.109375 -37.773438 22.328125 -36.890625 C 21.554688 -36.015625 20.976562 -35.03125 20.59375 -33.9375 C 20.207031 -32.84375 19.976562 -31.734375 19.90625 -30.609375 L 38.015625 -33.5625 C 37.804688 -34.976562 37.03125 -36.390625 35.6875 -37.796875 C 34.34375 -39.210938 32.363281 -39.921875 29.75 -39.921875 Z M 29.75 -39.921875 "/></g></g></g><g fill="#ffffff" fill-opacity="1"><g transform="translate(857.026057, 101.524572)"><g/></g></g><g fill="#ffffff" fill-opacity="1"><g transform="translate(192.784689, 204.173031)"><g/></g></g><g fill="#ffffff" fill-opacity="1"><g transform="translate(213.962954, 204.173031)"><g><path d="M 64.28125 -0.421875 C 63.5 -0.210938 62.28125 -0.00390625 60.625 0.203125 C 58.96875 0.421875 57.328125 0.53125 55.703125 0.53125 C 54.078125 0.53125 52.644531 0.40625 51.40625 0.15625 C 50.175781 -0.09375 49.132812 -0.535156 48.28125 -1.171875 C 47.4375 -1.804688 46.800781 -2.6875 46.375 -3.8125 C 45.957031 -4.9375 45.75 -6.421875 45.75 -8.265625 L 45.75 -24.78125 L 25.40625 -24.78125 L 25.40625 -0.421875 C 24.632812 -0.210938 23.414062 -0.00390625 21.75 0.203125 C 20.09375 0.421875 18.457031 0.53125 16.84375 0.53125 C 15.21875 0.53125 13.785156 0.40625 12.546875 0.15625 C 11.304688 -0.09375 10.265625 -0.535156 9.421875 -1.171875 C 8.578125 -1.804688 7.941406 -2.6875 7.515625 -3.8125 C 7.097656 -4.9375 6.890625 -6.421875 6.890625 -8.265625 L 6.890625 -64.171875 C 7.660156 -64.304688 8.890625 -64.5 10.578125 -64.75 C 12.273438 -65 13.898438 -65.125 15.453125 -65.125 C 17.078125 -65.125 18.507812 -65 19.75 -64.75 C 20.988281 -64.5 22.03125 -64.054688 22.875 -63.421875 C 23.71875 -62.785156 24.347656 -61.90625 24.765625 -60.78125 C 25.191406 -59.65625 25.40625 -58.171875 25.40625 -56.328125 L 25.40625 -39.390625 L 45.75 -39.390625 L 45.75 -64.171875 C 46.519531 -64.304688 47.753906 -64.5 49.453125 -64.75 C 51.148438 -65 52.773438 -65.125 54.328125 -65.125 C 55.941406 -65.125 57.367188 -65 58.609375 -64.75 C 59.847656 -64.5 60.890625 -64.054688 61.734375 -63.421875 C 62.578125 -62.785156 63.210938 -61.90625 63.640625 -60.78125 C 64.066406 -59.65625 64.28125 -58.171875 64.28125 -56.328125 Z M 64.28125 -0.421875 "/></g></g></g><g fill="#ffffff" fill-opacity="1"><g transform="translate(285.114121, 204.173031)"><g><path d="M 3.703125 -32.1875 C 3.703125 -37.695312 4.566406 -42.566406 6.296875 -46.796875 C 8.023438 -51.035156 10.390625 -54.582031 13.390625 -57.4375 C 16.390625 -60.300781 19.921875 -62.472656 23.984375 -63.953125 C 28.046875 -65.441406 32.441406 -66.1875 37.171875 -66.1875 C 41.898438 -66.1875 46.289062 -65.441406 50.34375 -63.953125 C 54.40625 -62.472656 57.953125 -60.300781 60.984375 -57.4375 C 64.023438 -54.582031 66.410156 -51.035156 68.140625 -46.796875 C 69.867188 -42.566406 70.734375 -37.695312 70.734375 -32.1875 C 70.734375 -26.6875 69.882812 -21.800781 68.1875 -17.53125 C 66.5 -13.257812 64.15625 -9.691406 61.15625 -6.828125 C 58.15625 -3.972656 54.609375 -1.800781 50.515625 -0.3125 C 46.421875 1.164062 41.972656 1.90625 37.171875 1.90625 C 32.367188 1.90625 27.921875 1.148438 23.828125 -0.359375 C 19.734375 -1.878906 16.203125 -4.085938 13.234375 -6.984375 C 10.265625 -9.878906 7.929688 -13.441406 6.234375 -17.671875 C 4.546875 -21.910156 3.703125 -26.75 3.703125 -32.1875 Z M 22.765625 -32.1875 C 22.765625 -25.757812 24.070312 -20.957031 26.6875 -17.78125 C 29.300781 -14.613281 32.796875 -13.03125 37.171875 -13.03125 C 41.617188 -13.03125 45.144531 -14.613281 47.75 -17.78125 C 50.363281 -20.957031 51.671875 -25.757812 51.671875 -32.1875 C 51.671875 -38.539062 50.378906 -43.304688 47.796875 -46.484375 C 45.222656 -49.660156 41.71875 -51.25 37.28125 -51.25 C 32.894531 -51.25 29.378906 -49.675781 26.734375 -46.53125 C 24.085938 -43.394531 22.765625 -38.613281 22.765625 -32.1875 Z M 22.765625 -32.1875 "/></g></g></g><g fill="#ffffff" fill-opacity="1"><g transform="translate(359.54756, 204.173031)"><g><path d="M 25.3125 -20.75 L 25.3125 -0.421875 C 24.53125 -0.210938 23.3125 -0.00390625 21.65625 0.203125 C 20 0.421875 18.359375 0.53125 16.734375 0.53125 C 15.109375 0.53125 13.675781 0.40625 12.4375 0.15625 C 11.207031 -0.09375 10.1875 -0.535156 9.375 -1.171875 C 8.5625 -1.804688 7.941406 -2.6875 7.515625 -3.8125 C 7.097656 -4.9375 6.890625 -6.421875 6.890625 -8.265625 L 6.890625 -58.140625 C 6.890625 -59.617188 7.289062 -60.765625 8.09375 -61.578125 C 8.90625 -62.390625 10.019531 -63.039062 11.4375 -63.53125 C 13.832031 -64.382812 16.617188 -65.003906 19.796875 -65.390625 C 22.972656 -65.773438 26.363281 -65.96875 29.96875 -65.96875 C 39.707031 -65.96875 47.046875 -63.921875 51.984375 -59.828125 C 56.929688 -55.734375 59.40625 -50.191406 59.40625 -43.203125 C 59.40625 -38.828125 58.273438 -35.082031 56.015625 -31.96875 C 53.753906 -28.863281 51.070312 -26.46875 47.96875 -24.78125 C 50.507812 -21.320312 53.015625 -18.070312 55.484375 -15.03125 C 57.953125 -12 59.894531 -9.25 61.3125 -6.78125 C 60.601562 -4.3125 59.3125 -2.421875 57.4375 -1.109375 C 55.570312 0.191406 53.472656 0.84375 51.140625 0.84375 C 49.585938 0.84375 48.242188 0.664062 47.109375 0.3125 C 45.984375 -0.0390625 45 -0.535156 44.15625 -1.171875 C 43.3125 -1.804688 42.535156 -2.582031 41.828125 -3.5 C 41.117188 -4.414062 40.445312 -5.398438 39.8125 -6.453125 L 30.921875 -20.75 Z M 31.984375 -34.84375 C 34.660156 -34.84375 36.773438 -35.53125 38.328125 -36.90625 C 39.878906 -38.28125 40.65625 -40.304688 40.65625 -42.984375 C 40.65625 -45.671875 39.789062 -47.703125 38.0625 -49.078125 C 36.332031 -50.453125 33.597656 -51.140625 29.859375 -51.140625 C 28.796875 -51.140625 27.945312 -51.101562 27.3125 -51.03125 C 26.675781 -50.96875 25.972656 -50.863281 25.203125 -50.71875 L 25.203125 -34.84375 Z M 31.984375 -34.84375 "/></g></g></g><g fill="#ffffff" fill-opacity="1"><g transform="translate(424.028305, 204.173031)"><g><path d="M 25.40625 -0.421875 C 24.632812 -0.210938 23.414062 -0.00390625 21.75 0.203125 C 20.09375 0.421875 18.457031 0.53125 16.84375 0.53125 C 15.21875 0.53125 13.785156 0.40625 12.546875 0.15625 C 11.304688 -0.09375 10.265625 -0.535156 9.421875 -1.171875 C 8.578125 -1.804688 7.941406 -2.6875 7.515625 -3.8125 C 7.097656 -4.9375 6.890625 -6.421875 6.890625 -8.265625 L 6.890625 -64.171875 C 7.660156 -64.304688 8.890625 -64.5 10.578125 -64.75 C 12.273438 -65 13.898438 -65.125 15.453125 -65.125 C 17.078125 -65.125 18.507812 -65 19.75 -64.75 C 20.988281 -64.5 22.03125 -64.054688 22.875 -63.421875 C 23.71875 -62.785156 24.347656 -61.90625 24.765625 -60.78125 C 25.191406 -59.65625 25.40625 -58.171875 25.40625 -56.328125 Z M 25.40625 -0.421875 "/></g></g></g><g fill="#ffffff" fill-opacity="1"><g transform="translate(456.321616, 204.173031)"><g><path d="M 32.609375 -49.34375 L 6.5625 -49.34375 C 6.070312 -50.125 5.613281 -51.179688 5.1875 -52.515625 C 4.757812 -53.859375 4.546875 -55.269531 4.546875 -56.75 C 4.546875 -59.507812 5.164062 -61.488281 6.40625 -62.6875 C 7.644531 -63.882812 9.25 -64.484375 11.21875 -64.484375 L 50.71875 -64.484375 C 53.820312 -61.941406 55.375 -58.554688 55.375 -54.328125 C 55.375 -52.554688 54.96875 -50.804688 54.15625 -49.078125 C 53.34375 -47.347656 52.304688 -45.707031 51.046875 -44.15625 L 27 -15.140625 L 54.109375 -15.140625 C 54.597656 -14.367188 55.054688 -13.3125 55.484375 -11.96875 C 55.910156 -10.625 56.125 -9.210938 56.125 -7.734375 C 56.125 -4.972656 55.503906 -2.992188 54.265625 -1.796875 C 53.035156 -0.597656 51.429688 0 49.453125 0 L 7.734375 0 C 6.535156 -0.988281 5.546875 -2.328125 4.765625 -4.015625 C 3.984375 -5.710938 3.59375 -7.65625 3.59375 -9.84375 C 3.59375 -11.613281 4.050781 -13.414062 4.96875 -15.25 C 5.894531 -17.082031 6.992188 -18.773438 8.265625 -20.328125 Z M 32.609375 -49.34375 "/></g></g></g><g fill="#ffffff" fill-opacity="1"><g transform="translate(514.343628, 204.173031)"><g><path d="M 3.703125 -32.1875 C 3.703125 -37.695312 4.566406 -42.566406 6.296875 -46.796875 C 8.023438 -51.035156 10.390625 -54.582031 13.390625 -57.4375 C 16.390625 -60.300781 19.921875 -62.472656 23.984375 -63.953125 C 28.046875 -65.441406 32.441406 -66.1875 37.171875 -66.1875 C 41.898438 -66.1875 46.289062 -65.441406 50.34375 -63.953125 C 54.40625 -62.472656 57.953125 -60.300781 60.984375 -57.4375 C 64.023438 -54.582031 66.410156 -51.035156 68.140625 -46.796875 C 69.867188 -42.566406 70.734375 -37.695312 70.734375 -32.1875 C 70.734375 -26.6875 69.882812 -21.800781 68.1875 -17.53125 C 66.5 -13.257812 64.15625 -9.691406 61.15625 -6.828125 C 58.15625 -3.972656 54.609375 -1.800781 50.515625 -0.3125 C 46.421875 1.164062 41.972656 1.90625 37.171875 1.90625 C 32.367188 1.90625 27.921875 1.148438 23.828125 -0.359375 C 19.734375 -1.878906 16.203125 -4.085938 13.234375 -6.984375 C 10.265625 -9.878906 7.929688 -13.441406 6.234375 -17.671875 C 4.546875 -21.910156 3.703125 -26.75 3.703125 -32.1875 Z M 22.765625 -32.1875 C 22.765625 -25.757812 24.070312 -20.957031 26.6875 -17.78125 C 29.300781 -14.613281 32.796875 -13.03125 37.171875 -13.03125 C 41.617188 -13.03125 45.144531 -14.613281 47.75 -17.78125 C 50.363281 -20.957031 51.671875 -25.757812 51.671875 -32.1875 C 51.671875 -38.539062 50.378906 -43.304688 47.796875 -46.484375 C 45.222656 -49.660156 41.71875 -51.25 37.28125 -51.25 C 32.894531 -51.25 29.378906 -49.675781 26.734375 -46.53125 C 24.085938 -43.394531 22.765625 -38.613281 22.765625 -32.1875 Z M 22.765625 -32.1875 "/></g></g></g><g fill="#ffffff" fill-opacity="1"><g transform="translate(588.777078, 204.173031)"><g><path d="M 65.015625 -2.21875 C 64.023438 -1.226562 62.59375 -0.472656 60.71875 0.046875 C 58.851562 0.578125 56.613281 0.84375 54 0.84375 C 51.394531 0.84375 48.925781 0.457031 46.59375 -0.3125 C 44.257812 -1.09375 42.351562 -2.96875 40.875 -5.9375 L 30.390625 -27.3125 C 29.328125 -29.507812 28.375 -31.578125 27.53125 -33.515625 C 26.6875 -35.453125 25.769531 -37.691406 24.78125 -40.234375 L 24.140625 -40.125 C 24.421875 -36.320312 24.578125 -32.441406 24.609375 -28.484375 C 24.648438 -24.523438 24.671875 -20.644531 24.671875 -16.84375 L 24.671875 -0.421875 C 23.890625 -0.210938 22.707031 -0.00390625 21.125 0.203125 C 19.539062 0.421875 17.96875 0.53125 16.40625 0.53125 C 14.851562 0.53125 13.476562 0.421875 12.28125 0.203125 C 11.082031 -0.00390625 10.09375 -0.425781 9.3125 -1.0625 C 8.539062 -1.695312 7.941406 -2.5625 7.515625 -3.65625 C 7.097656 -4.75 6.890625 -6.175781 6.890625 -7.9375 L 6.890625 -60.890625 C 7.867188 -62.296875 9.378906 -63.351562 11.421875 -64.0625 C 13.472656 -64.769531 15.664062 -65.125 18 -65.125 C 20.613281 -65.125 23.101562 -64.71875 25.46875 -63.90625 C 27.832031 -63.09375 29.71875 -61.238281 31.125 -58.34375 L 41.71875 -36.953125 C 42.78125 -34.765625 43.734375 -32.695312 44.578125 -30.75 C 45.421875 -28.8125 46.335938 -26.570312 47.328125 -24.03125 L 47.859375 -24.140625 C 47.578125 -27.953125 47.398438 -31.765625 47.328125 -35.578125 C 47.265625 -39.390625 47.234375 -43.203125 47.234375 -47.015625 L 47.234375 -64.171875 C 48.003906 -64.378906 49.179688 -64.585938 50.765625 -64.796875 C 52.359375 -65.015625 53.929688 -65.125 55.484375 -65.125 C 58.585938 -65.125 60.953125 -64.578125 62.578125 -63.484375 C 64.203125 -62.390625 65.015625 -60.113281 65.015625 -56.65625 Z M 65.015625 -2.21875 "/></g></g></g><g fill="#ffffff" fill-opacity="1"><g transform="translate(660.669386, 204.173031)"><g><path d="M 25.09375 -25.515625 C 21.988281 -26.578125 19.164062 -27.65625 16.625 -28.75 C 14.082031 -29.84375 11.894531 -31.164062 10.0625 -32.71875 C 8.226562 -34.269531 6.796875 -36.125 5.765625 -38.28125 C 4.742188 -40.4375 4.234375 -43.066406 4.234375 -46.171875 C 4.234375 -52.171875 6.546875 -56.96875 11.171875 -60.5625 C 15.796875 -64.164062 22.273438 -65.96875 30.609375 -65.96875 C 33.640625 -65.96875 36.457031 -65.753906 39.0625 -65.328125 C 41.675781 -64.910156 43.921875 -64.257812 45.796875 -63.375 C 47.671875 -62.488281 49.132812 -61.359375 50.1875 -59.984375 C 51.25 -58.609375 51.78125 -57.003906 51.78125 -55.171875 C 51.78125 -53.335938 51.351562 -51.765625 50.5 -50.453125 C 49.65625 -49.148438 48.632812 -48.039062 47.4375 -47.125 C 45.882812 -48.113281 43.800781 -48.976562 41.1875 -49.71875 C 38.582031 -50.457031 35.722656 -50.828125 32.609375 -50.828125 C 29.429688 -50.828125 27.101562 -50.382812 25.625 -49.5 C 24.144531 -48.625 23.40625 -47.515625 23.40625 -46.171875 C 23.40625 -45.109375 23.863281 -44.238281 24.78125 -43.5625 C 25.695312 -42.894531 27.070312 -42.28125 28.90625 -41.71875 L 34.515625 -39.921875 C 41.148438 -37.804688 46.25 -35.101562 49.8125 -31.8125 C 53.382812 -28.53125 55.171875 -24.066406 55.171875 -18.421875 C 55.171875 -12.421875 52.804688 -7.566406 48.078125 -3.859375 C 43.347656 -0.160156 36.394531 1.6875 27.21875 1.6875 C 23.96875 1.6875 20.945312 1.421875 18.15625 0.890625 C 15.375 0.367188 12.941406 -0.398438 10.859375 -1.421875 C 8.773438 -2.453125 7.148438 -3.722656 5.984375 -5.234375 C 4.816406 -6.753906 4.234375 -8.503906 4.234375 -10.484375 C 4.234375 -12.523438 4.832031 -14.269531 6.03125 -15.71875 C 7.226562 -17.164062 8.535156 -18.28125 9.953125 -19.0625 C 11.929688 -17.507812 14.347656 -16.164062 17.203125 -15.03125 C 20.066406 -13.90625 23.191406 -13.34375 26.578125 -13.34375 C 30.035156 -13.34375 32.46875 -13.867188 33.875 -14.921875 C 35.289062 -15.984375 36 -17.222656 36 -18.640625 C 36 -20.046875 35.429688 -21.117188 34.296875 -21.859375 C 33.171875 -22.609375 31.585938 -23.332031 29.546875 -24.03125 Z M 25.09375 -25.515625 "/></g></g></g><g fill="#55bab7" fill-opacity="1"><g transform="translate(719.010235, 204.173031)"><g><path d="M 2.328125 -8.578125 C 2.328125 -11.546875 3.242188 -14.015625 5.078125 -15.984375 C 6.910156 -17.960938 9.414062 -18.953125 12.59375 -18.953125 C 15.769531 -18.953125 18.273438 -17.960938 20.109375 -15.984375 C 21.953125 -14.015625 22.875 -11.546875 22.875 -8.578125 C 22.875 -5.609375 21.953125 -3.132812 20.109375 -1.15625 C 18.273438 0.8125 15.769531 1.796875 12.59375 1.796875 C 9.414062 1.796875 6.910156 0.8125 5.078125 -1.15625 C 3.242188 -3.132812 2.328125 -5.609375 2.328125 -8.578125 Z M 2.328125 -8.578125 "/></g></g></g></svg>