<svg xmlns="http://www.w3.org/2000/svg" xmlns:xlink="http://www.w3.org/1999/xlink" width="1250" zoomAndPan="magnify" viewBox="0 0 937.5 252.749989" height="337" preserveAspectRatio="xMidYMid meet" version="1.0"><defs><g/></defs><g fill="#000000" fill-opacity="1"><g transform="translate(8.601645, 101.747476)"><g><path d="M 34.703125 -38.625 C 38.035156 -38.625 40.59375 -39.394531 42.375 -40.9375 C 44.15625 -42.488281 45.046875 -44.847656 45.046875 -48.015625 C 45.046875 -51.023438 44.113281 -53.34375 42.25 -54.96875 C 40.394531 -56.59375 37.679688 -57.40625 34.109375 -57.40625 C 32.835938 -57.40625 31.785156 -57.382812 30.953125 -57.34375 C 30.128906 -57.3125 29.28125 -57.210938 28.40625 -57.046875 L 28.40625 -38.625 Z M 28.53125 -0.46875 C 27.65625 -0.238281 26.285156 -0.00390625 24.421875 0.234375 C 22.554688 0.472656 20.71875 0.59375 18.90625 0.59375 C 17.082031 0.59375 15.472656 0.453125 14.078125 0.171875 C 12.691406 -0.0976562 11.523438 -0.585938 10.578125 -1.296875 C 9.628906 -2.015625 8.914062 -3.007812 8.4375 -4.28125 C 7.957031 -5.550781 7.71875 -7.210938 7.71875 -9.265625 L 7.71875 -65.25 C 7.71875 -66.914062 8.171875 -68.203125 9.078125 -69.109375 C 9.992188 -70.023438 11.25 -70.757812 12.84375 -71.3125 C 15.53125 -72.257812 18.597656 -72.953125 22.046875 -73.390625 C 25.492188 -73.828125 28.960938 -74.046875 32.453125 -74.046875 C 43.378906 -74.046875 51.734375 -71.707031 57.515625 -67.03125 C 63.304688 -62.363281 66.203125 -56.023438 66.203125 -48.015625 C 66.203125 -44.128906 65.585938 -40.625 64.359375 -37.5 C 63.128906 -34.375 61.304688 -31.679688 58.890625 -29.421875 C 56.472656 -27.160156 53.421875 -25.414062 49.734375 -24.1875 C 46.054688 -22.957031 41.800781 -22.34375 36.96875 -22.34375 L 28.53125 -22.34375 Z M 28.53125 -0.46875 "/></g></g></g><g fill="#000000" fill-opacity="1"><g transform="translate(75.8712, 101.747476)"><g><path d="M 36.734375 1.90625 C 32.054688 1.90625 27.710938 1.253906 23.703125 -0.046875 C 19.703125 -1.359375 16.21875 -3.320312 13.25 -5.9375 C 10.28125 -8.550781 7.941406 -11.835938 6.234375 -15.796875 C 4.535156 -19.765625 3.6875 -24.40625 3.6875 -29.71875 C 3.6875 -34.945312 4.535156 -39.441406 6.234375 -43.203125 C 7.941406 -46.960938 10.179688 -50.050781 12.953125 -52.46875 C 15.722656 -54.894531 18.890625 -56.679688 22.453125 -57.828125 C 26.023438 -58.972656 29.675781 -59.546875 33.40625 -59.546875 C 37.601562 -59.546875 41.425781 -58.910156 44.875 -57.640625 C 48.320312 -56.378906 51.289062 -54.640625 53.78125 -52.421875 C 56.28125 -50.203125 58.222656 -47.546875 59.609375 -44.453125 C 60.992188 -41.359375 61.6875 -37.988281 61.6875 -34.34375 C 61.6875 -31.65625 60.929688 -29.597656 59.421875 -28.171875 C 57.921875 -26.742188 55.820312 -25.832031 53.125 -25.4375 L 23.765625 -21.03125 C 24.640625 -18.414062 26.421875 -16.453125 29.109375 -15.140625 C 31.804688 -13.835938 34.898438 -13.1875 38.390625 -13.1875 C 41.640625 -13.1875 44.707031 -13.601562 47.59375 -14.4375 C 50.488281 -15.269531 52.847656 -16.242188 54.671875 -17.359375 C 55.941406 -16.566406 57.007812 -15.457031 57.875 -14.03125 C 58.75 -12.601562 59.1875 -11.097656 59.1875 -9.515625 C 59.1875 -5.941406 57.523438 -3.285156 54.203125 -1.546875 C 51.660156 -0.203125 48.804688 0.707031 45.640625 1.1875 C 42.472656 1.664062 39.503906 1.90625 36.734375 1.90625 Z M 33.40625 -44.8125 C 31.5 -44.8125 29.851562 -44.492188 28.46875 -43.859375 C 27.082031 -43.222656 25.953125 -42.410156 25.078125 -41.421875 C 24.203125 -40.429688 23.546875 -39.320312 23.109375 -38.09375 C 22.679688 -36.863281 22.425781 -35.613281 22.34375 -34.34375 L 42.671875 -37.671875 C 42.429688 -39.265625 41.554688 -40.851562 40.046875 -42.4375 C 38.546875 -44.019531 36.332031 -44.8125 33.40625 -44.8125 Z M 33.40625 -44.8125 "/></g></g></g><g fill="#000000" fill-opacity="1"><g transform="translate(141.120456, 101.747476)"><g><path d="M 65.96875 -28.875 C 65.96875 -23.96875 65.210938 -19.59375 63.703125 -15.75 C 62.203125 -11.90625 60.082031 -8.675781 57.34375 -6.0625 C 54.613281 -3.445312 51.347656 -1.460938 47.546875 -0.109375 C 43.742188 1.234375 39.503906 1.90625 34.828125 1.90625 C 30.148438 1.90625 25.910156 1.191406 22.109375 -0.234375 C 18.304688 -1.660156 15.035156 -3.703125 12.296875 -6.359375 C 9.566406 -9.015625 7.445312 -12.242188 5.9375 -16.046875 C 4.4375 -19.847656 3.6875 -24.125 3.6875 -28.875 C 3.6875 -33.550781 4.4375 -37.789062 5.9375 -41.59375 C 7.445312 -45.40625 9.566406 -48.632812 12.296875 -51.28125 C 15.035156 -53.9375 18.304688 -55.976562 22.109375 -57.40625 C 25.910156 -58.832031 30.148438 -59.546875 34.828125 -59.546875 C 39.503906 -59.546875 43.742188 -58.8125 47.546875 -57.34375 C 51.347656 -55.882812 54.613281 -53.828125 57.34375 -51.171875 C 60.082031 -48.515625 62.203125 -45.285156 63.703125 -41.484375 C 65.210938 -37.679688 65.96875 -33.476562 65.96875 -28.875 Z M 24.359375 -28.875 C 24.359375 -24.039062 25.289062 -20.335938 27.15625 -17.765625 C 29.019531 -15.191406 31.613281 -13.90625 34.9375 -13.90625 C 38.269531 -13.90625 40.828125 -15.210938 42.609375 -17.828125 C 44.390625 -20.441406 45.28125 -24.125 45.28125 -28.875 C 45.28125 -33.632812 44.367188 -37.300781 42.546875 -39.875 C 40.722656 -42.445312 38.148438 -43.734375 34.828125 -43.734375 C 31.492188 -43.734375 28.914062 -42.445312 27.09375 -39.875 C 25.269531 -37.300781 24.359375 -33.632812 24.359375 -28.875 Z M 24.359375 -28.875 "/></g></g></g><g fill="#000000" fill-opacity="1"><g transform="translate(210.767195, 101.747476)"><g><path d="M 32.6875 -59.546875 C 37.4375 -59.546875 41.851562 -58.929688 45.9375 -57.703125 C 50.019531 -56.472656 53.523438 -54.585938 56.453125 -52.046875 C 59.390625 -49.515625 61.6875 -46.328125 63.34375 -42.484375 C 65.007812 -38.648438 65.84375 -34.078125 65.84375 -28.765625 C 65.84375 -23.691406 65.128906 -19.253906 63.703125 -15.453125 C 62.273438 -11.648438 60.253906 -8.457031 57.640625 -5.875 C 55.023438 -3.300781 51.875 -1.378906 48.1875 -0.109375 C 44.507812 1.148438 40.410156 1.78125 35.890625 1.78125 C 32.484375 1.78125 29.316406 1.265625 26.390625 0.234375 L 26.390625 19.96875 C 25.597656 20.207031 24.328125 20.460938 22.578125 20.734375 C 20.835938 21.015625 19.054688 21.15625 17.234375 21.15625 C 15.492188 21.15625 13.925781 21.035156 12.53125 20.796875 C 11.144531 20.554688 9.976562 20.078125 9.03125 19.359375 C 8.082031 18.648438 7.367188 17.679688 6.890625 16.453125 C 6.421875 15.234375 6.1875 13.628906 6.1875 11.640625 L 6.1875 -45.40625 C 6.1875 -47.539062 6.640625 -49.28125 7.546875 -50.625 C 8.460938 -51.976562 9.710938 -53.207031 11.296875 -54.3125 C 13.742188 -55.90625 16.789062 -57.175781 20.4375 -58.125 C 24.082031 -59.070312 28.164062 -59.546875 32.6875 -59.546875 Z M 32.921875 -14.140625 C 41.085938 -14.140625 45.171875 -19.015625 45.171875 -28.765625 C 45.171875 -33.835938 44.160156 -37.597656 42.140625 -40.046875 C 40.117188 -42.503906 37.207031 -43.734375 33.40625 -43.734375 C 31.894531 -43.734375 30.546875 -43.554688 29.359375 -43.203125 C 28.171875 -42.847656 27.140625 -42.429688 26.265625 -41.953125 L 26.265625 -15.8125 C 27.210938 -15.332031 28.238281 -14.929688 29.34375 -14.609375 C 30.457031 -14.296875 31.648438 -14.140625 32.921875 -14.140625 Z M 32.921875 -14.140625 "/></g></g></g><g fill="#000000" fill-opacity="1"><g transform="translate(280.29509, 101.747476)"><g><path d="M 26.75 -0.125 C 25.875 0.0390625 24.582031 0.257812 22.875 0.53125 C 21.175781 0.8125 19.453125 0.953125 17.703125 0.953125 C 15.960938 0.953125 14.398438 0.832031 13.015625 0.59375 C 11.628906 0.351562 10.457031 -0.117188 9.5 -0.828125 C 8.550781 -1.546875 7.816406 -2.519531 7.296875 -3.75 C 6.785156 -4.976562 6.53125 -6.582031 6.53125 -8.5625 L 6.53125 -77.5 C 7.40625 -77.65625 8.691406 -77.867188 10.390625 -78.140625 C 12.097656 -78.421875 13.828125 -78.5625 15.578125 -78.5625 C 17.316406 -78.5625 18.878906 -78.441406 20.265625 -78.203125 C 21.648438 -77.972656 22.816406 -77.5 23.765625 -76.78125 C 24.722656 -76.070312 25.457031 -75.101562 25.96875 -73.875 C 26.488281 -72.644531 26.75 -71.039062 26.75 -69.0625 Z M 26.75 -0.125 "/></g></g></g><g fill="#000000" fill-opacity="1"><g transform="translate(313.573404, 101.747476)"><g><path d="M 36.734375 1.90625 C 32.054688 1.90625 27.710938 1.253906 23.703125 -0.046875 C 19.703125 -1.359375 16.21875 -3.320312 13.25 -5.9375 C 10.28125 -8.550781 7.941406 -11.835938 6.234375 -15.796875 C 4.535156 -19.765625 3.6875 -24.40625 3.6875 -29.71875 C 3.6875 -34.945312 4.535156 -39.441406 6.234375 -43.203125 C 7.941406 -46.960938 10.179688 -50.050781 12.953125 -52.46875 C 15.722656 -54.894531 18.890625 -56.679688 22.453125 -57.828125 C 26.023438 -58.972656 29.675781 -59.546875 33.40625 -59.546875 C 37.601562 -59.546875 41.425781 -58.910156 44.875 -57.640625 C 48.320312 -56.378906 51.289062 -54.640625 53.78125 -52.421875 C 56.28125 -50.203125 58.222656 -47.546875 59.609375 -44.453125 C 60.992188 -41.359375 61.6875 -37.988281 61.6875 -34.34375 C 61.6875 -31.65625 60.929688 -29.597656 59.421875 -28.171875 C 57.921875 -26.742188 55.820312 -25.832031 53.125 -25.4375 L 23.765625 -21.03125 C 24.640625 -18.414062 26.421875 -16.453125 29.109375 -15.140625 C 31.804688 -13.835938 34.898438 -13.1875 38.390625 -13.1875 C 41.640625 -13.1875 44.707031 -13.601562 47.59375 -14.4375 C 50.488281 -15.269531 52.847656 -16.242188 54.671875 -17.359375 C 55.941406 -16.566406 57.007812 -15.457031 57.875 -14.03125 C 58.75 -12.601562 59.1875 -11.097656 59.1875 -9.515625 C 59.1875 -5.941406 57.523438 -3.285156 54.203125 -1.546875 C 51.660156 -0.203125 48.804688 0.707031 45.640625 1.1875 C 42.472656 1.664062 39.503906 1.90625 36.734375 1.90625 Z M 33.40625 -44.8125 C 31.5 -44.8125 29.851562 -44.492188 28.46875 -43.859375 C 27.082031 -43.222656 25.953125 -42.410156 25.078125 -41.421875 C 24.203125 -40.429688 23.546875 -39.320312 23.109375 -38.09375 C 22.679688 -36.863281 22.425781 -35.613281 22.34375 -34.34375 L 42.671875 -37.671875 C 42.429688 -39.265625 41.554688 -40.851562 40.046875 -42.4375 C 38.546875 -44.019531 36.332031 -44.8125 33.40625 -44.8125 Z M 33.40625 -44.8125 "/></g></g></g><g fill="#000000" fill-opacity="1"><g transform="translate(378.822649, 101.747476)"><g/></g></g><g fill="#000000" fill-opacity="1"><g transform="translate(402.592889, 101.747476)"><g><path d="M 55.5 -44.921875 C 57.007812 -45.554688 58.414062 -46.015625 59.71875 -46.296875 C 61.03125 -46.578125 62.359375 -46.71875 63.703125 -46.71875 C 65.609375 -46.71875 67.15625 -46.4375 68.34375 -45.875 C 69.53125 -45.320312 70.457031 -44.550781 71.125 -43.5625 C 71.800781 -42.570312 72.257812 -41.398438 72.5 -40.046875 C 72.738281 -38.703125 72.859375 -37.238281 72.859375 -35.65625 C 72.859375 -29.238281 71.234375 -23.140625 67.984375 -17.359375 L 77.140625 -8.5625 C 76.984375 -5.550781 75.953125 -3.09375 74.046875 -1.1875 C 72.148438 0.707031 69.894531 1.65625 67.28125 1.65625 C 64.101562 1.65625 61.007812 0.148438 58 -2.859375 L 55.75 -4.984375 C 52.8125 -2.847656 49.460938 -1.164062 45.703125 0.0625 C 41.941406 1.289062 37.757812 1.90625 33.15625 1.90625 C 28.488281 1.90625 24.367188 1.289062 20.796875 0.0625 C 17.234375 -1.164062 14.222656 -2.847656 11.765625 -4.984375 C 9.304688 -7.128906 7.441406 -9.644531 6.171875 -12.53125 C 4.910156 -15.425781 4.28125 -18.578125 4.28125 -21.984375 C 4.28125 -24.921875 4.710938 -27.535156 5.578125 -29.828125 C 6.453125 -32.128906 7.601562 -34.148438 9.03125 -35.890625 C 10.457031 -37.640625 12.039062 -39.125 13.78125 -40.34375 C 15.53125 -41.570312 17.316406 -42.585938 19.140625 -43.390625 C 17.554688 -45.285156 16.425781 -47.300781 15.75 -49.4375 C 15.070312 -51.582031 14.734375 -53.601562 14.734375 -55.5 C 14.734375 -57.957031 15.25 -60.253906 16.28125 -62.390625 C 17.3125 -64.535156 18.773438 -66.398438 20.671875 -67.984375 C 22.578125 -69.566406 24.894531 -70.796875 27.625 -71.671875 C 30.363281 -72.546875 33.476562 -72.984375 36.96875 -72.984375 C 41.957031 -72.984375 45.484375 -72.085938 47.546875 -70.296875 C 49.609375 -68.515625 50.640625 -66.238281 50.640625 -63.46875 C 50.640625 -62.125 50.378906 -60.816406 49.859375 -59.546875 C 49.347656 -58.273438 48.578125 -57.128906 47.546875 -56.109375 C 46.671875 -56.503906 45.660156 -56.816406 44.515625 -57.046875 C 43.367188 -57.285156 42.160156 -57.40625 40.890625 -57.40625 C 38.828125 -57.40625 37.117188 -57.085938 35.765625 -56.453125 C 34.421875 -55.816406 33.75 -54.671875 33.75 -53.015625 C 33.75 -51.828125 34.265625 -50.617188 35.296875 -49.390625 C 36.328125 -48.160156 37.597656 -46.789062 39.109375 -45.28125 L 54.3125 -30.546875 C 54.707031 -32.285156 55.003906 -34.34375 55.203125 -36.71875 C 55.398438 -39.101562 55.5 -41.835938 55.5 -44.921875 Z M 23.296875 -23.296875 C 23.296875 -20.523438 24.222656 -18.207031 26.078125 -16.34375 C 27.941406 -14.476562 30.695312 -13.546875 34.34375 -13.546875 C 35.9375 -13.546875 37.601562 -13.765625 39.34375 -14.203125 C 41.082031 -14.640625 42.742188 -15.375 44.328125 -16.40625 L 29.125 -31.734375 C 27.21875 -30.859375 25.769531 -29.664062 24.78125 -28.15625 C 23.789062 -26.65625 23.296875 -25.035156 23.296875 -23.296875 Z M 23.296875 -23.296875 "/></g></g></g><g fill="#000000" fill-opacity="1"><g transform="translate(482.579654, 101.747476)"><g/></g></g><g fill="#000000" fill-opacity="1"><g transform="translate(506.349872, 101.747476)"><g><path d="M 44.453125 -57.53125 C 38.347656 -57.53125 33.671875 -55.664062 30.421875 -51.9375 C 27.179688 -48.21875 25.5625 -42.953125 25.5625 -36.140625 C 25.5625 -29.242188 27.363281 -23.929688 30.96875 -20.203125 C 34.570312 -16.484375 39.421875 -14.625 45.515625 -14.625 C 48.765625 -14.625 51.519531 -15.054688 53.78125 -15.921875 C 56.039062 -16.796875 58.203125 -17.789062 60.265625 -18.90625 C 61.609375 -17.789062 62.65625 -16.457031 63.40625 -14.90625 C 64.164062 -13.363281 64.546875 -11.566406 64.546875 -9.515625 C 64.546875 -6.265625 62.738281 -3.507812 59.125 -1.25 C 55.519531 1.007812 50.035156 2.140625 42.671875 2.140625 C 37.359375 2.140625 32.363281 1.390625 27.6875 -0.109375 C 23.019531 -1.617188 18.941406 -3.9375 15.453125 -7.0625 C 11.960938 -10.195312 9.207031 -14.160156 7.1875 -18.953125 C 5.164062 -23.753906 4.15625 -29.484375 4.15625 -36.140625 C 4.15625 -42.316406 5.125 -47.757812 7.0625 -52.46875 C 9.007812 -57.1875 11.664062 -61.171875 15.03125 -64.421875 C 18.40625 -67.671875 22.347656 -70.125 26.859375 -71.78125 C 31.378906 -73.445312 36.210938 -74.28125 41.359375 -74.28125 C 48.648438 -74.28125 54.296875 -73.09375 58.296875 -70.71875 C 62.296875 -68.34375 64.296875 -65.289062 64.296875 -61.5625 C 64.296875 -59.507812 63.78125 -57.726562 62.75 -56.21875 C 61.726562 -54.71875 60.539062 -53.53125 59.1875 -52.65625 C 57.132812 -54 54.9375 -55.144531 52.59375 -56.09375 C 50.257812 -57.050781 47.546875 -57.53125 44.453125 -57.53125 Z M 44.453125 -57.53125 "/></g></g></g><g fill="#000000" fill-opacity="1"><g transform="translate(573.619541, 101.747476)"><g><path d="M 6.1875 -56.9375 C 6.976562 -57.175781 8.222656 -57.410156 9.921875 -57.640625 C 11.628906 -57.878906 13.394531 -58 15.21875 -58 C 16.957031 -58 18.519531 -57.878906 19.90625 -57.640625 C 21.289062 -57.410156 22.457031 -56.9375 23.40625 -56.21875 C 24.363281 -55.507812 25.097656 -54.539062 25.609375 -53.3125 C 26.128906 -52.082031 26.390625 -50.476562 26.390625 -48.5 L 26.390625 -22.9375 C 26.390625 -19.6875 27.179688 -17.367188 28.765625 -15.984375 C 30.347656 -14.597656 32.644531 -13.90625 35.65625 -13.90625 C 37.476562 -13.90625 38.960938 -14.0625 40.109375 -14.375 C 41.265625 -14.695312 42.160156 -15.015625 42.796875 -15.328125 L 42.796875 -56.9375 C 43.585938 -57.175781 44.832031 -57.410156 46.53125 -57.640625 C 48.238281 -57.878906 50.003906 -58 51.828125 -58 C 53.566406 -58 55.128906 -57.878906 56.515625 -57.640625 C 57.898438 -57.410156 59.066406 -56.9375 60.015625 -56.21875 C 60.972656 -55.507812 61.707031 -54.539062 62.21875 -53.3125 C 62.738281 -52.082031 63 -50.476562 63 -48.5 L 63 -12.359375 C 63 -8.398438 61.332031 -5.429688 58 -3.453125 C 55.226562 -1.703125 51.921875 -0.375 48.078125 0.53125 C 44.234375 1.445312 40.050781 1.90625 35.53125 1.90625 C 31.257812 1.90625 27.316406 1.425781 23.703125 0.46875 C 20.097656 -0.476562 16.988281 -1.941406 14.375 -3.921875 C 11.757812 -5.898438 9.738281 -8.453125 8.3125 -11.578125 C 6.894531 -14.710938 6.1875 -18.5 6.1875 -22.9375 Z M 6.1875 -56.9375 "/></g></g></g><g fill="#000000" fill-opacity="1"><g transform="translate(642.790893, 101.747476)"><g><path d="M 26.75 -0.125 C 25.875 0.0390625 24.582031 0.257812 22.875 0.53125 C 21.175781 0.8125 19.453125 0.953125 17.703125 0.953125 C 15.960938 0.953125 14.398438 0.832031 13.015625 0.59375 C 11.628906 0.351562 10.457031 -0.117188 9.5 -0.828125 C 8.550781 -1.546875 7.816406 -2.519531 7.296875 -3.75 C 6.785156 -4.976562 6.53125 -6.582031 6.53125 -8.5625 L 6.53125 -77.5 C 7.40625 -77.65625 8.691406 -77.867188 10.390625 -78.140625 C 12.097656 -78.421875 13.828125 -78.5625 15.578125 -78.5625 C 17.316406 -78.5625 18.878906 -78.441406 20.265625 -78.203125 C 21.648438 -77.972656 22.816406 -77.5 23.765625 -76.78125 C 24.722656 -76.070312 25.457031 -75.101562 25.96875 -73.875 C 26.488281 -72.644531 26.75 -71.039062 26.75 -69.0625 Z M 26.75 -0.125 "/></g></g></g><g fill="#000000" fill-opacity="1"><g transform="translate(676.069162, 101.747476)"><g><path d="M 26.390625 -19.84375 C 26.390625 -17.789062 27.039062 -16.328125 28.34375 -15.453125 C 29.65625 -14.578125 31.5 -14.140625 33.875 -14.140625 C 35.0625 -14.140625 36.289062 -14.238281 37.5625 -14.4375 C 38.832031 -14.632812 39.941406 -14.894531 40.890625 -15.21875 C 41.597656 -14.34375 42.207031 -13.367188 42.71875 -12.296875 C 43.238281 -11.234375 43.5 -9.945312 43.5 -8.4375 C 43.5 -5.425781 42.367188 -2.96875 40.109375 -1.0625 C 37.859375 0.832031 33.878906 1.78125 28.171875 1.78125 C 21.191406 1.78125 15.820312 0.195312 12.0625 -2.96875 C 8.300781 -6.132812 6.421875 -11.285156 6.421875 -18.421875 L 6.421875 -69.296875 C 7.285156 -69.535156 8.53125 -69.789062 10.15625 -70.0625 C 11.78125 -70.34375 13.503906 -70.484375 15.328125 -70.484375 C 18.816406 -70.484375 21.53125 -69.867188 23.46875 -68.640625 C 25.414062 -67.410156 26.390625 -64.816406 26.390625 -60.859375 L 26.390625 -53.25 L 41.953125 -53.25 C 42.429688 -52.375 42.890625 -51.28125 43.328125 -49.96875 C 43.765625 -48.664062 43.984375 -47.222656 43.984375 -45.640625 C 43.984375 -42.867188 43.367188 -40.867188 42.140625 -39.640625 C 40.910156 -38.410156 39.265625 -37.796875 37.203125 -37.796875 L 26.390625 -37.796875 Z M 26.390625 -19.84375 "/></g></g></g><g fill="#000000" fill-opacity="1"><g transform="translate(723.609598, 101.747476)"><g><path d="M 6.1875 -56.9375 C 6.976562 -57.175781 8.222656 -57.410156 9.921875 -57.640625 C 11.628906 -57.878906 13.394531 -58 15.21875 -58 C 16.957031 -58 18.519531 -57.878906 19.90625 -57.640625 C 21.289062 -57.410156 22.457031 -56.9375 23.40625 -56.21875 C 24.363281 -55.507812 25.097656 -54.539062 25.609375 -53.3125 C 26.128906 -52.082031 26.390625 -50.476562 26.390625 -48.5 L 26.390625 -22.9375 C 26.390625 -19.6875 27.179688 -17.367188 28.765625 -15.984375 C 30.347656 -14.597656 32.644531 -13.90625 35.65625 -13.90625 C 37.476562 -13.90625 38.960938 -14.0625 40.109375 -14.375 C 41.265625 -14.695312 42.160156 -15.015625 42.796875 -15.328125 L 42.796875 -56.9375 C 43.585938 -57.175781 44.832031 -57.410156 46.53125 -57.640625 C 48.238281 -57.878906 50.003906 -58 51.828125 -58 C 53.566406 -58 55.128906 -57.878906 56.515625 -57.640625 C 57.898438 -57.410156 59.066406 -56.9375 60.015625 -56.21875 C 60.972656 -55.507812 61.707031 -54.539062 62.21875 -53.3125 C 62.738281 -52.082031 63 -50.476562 63 -48.5 L 63 -12.359375 C 63 -8.398438 61.332031 -5.429688 58 -3.453125 C 55.226562 -1.703125 51.921875 -0.375 48.078125 0.53125 C 44.234375 1.445312 40.050781 1.90625 35.53125 1.90625 C 31.257812 1.90625 27.316406 1.425781 23.703125 0.46875 C 20.097656 -0.476562 16.988281 -1.941406 14.375 -3.921875 C 11.757812 -5.898438 9.738281 -8.453125 8.3125 -11.578125 C 6.894531 -14.710938 6.1875 -18.5 6.1875 -22.9375 Z M 6.1875 -56.9375 "/></g></g></g><g fill="#000000" fill-opacity="1"><g transform="translate(792.78095, 101.747476)"><g><path d="M 26.390625 -0.125 C 25.597656 0.113281 24.347656 0.351562 22.640625 0.59375 C 20.941406 0.832031 19.179688 0.953125 17.359375 0.953125 C 15.609375 0.953125 14.039062 0.832031 12.65625 0.59375 C 11.269531 0.351562 10.097656 -0.117188 9.140625 -0.828125 C 8.191406 -1.546875 7.460938 -2.519531 6.953125 -3.75 C 6.441406 -4.976562 6.1875 -6.582031 6.1875 -8.5625 L 6.1875 -44.21875 C 6.1875 -46.039062 6.519531 -47.601562 7.1875 -48.90625 C 7.863281 -50.21875 8.835938 -51.390625 10.109375 -52.421875 C 11.367188 -53.453125 12.929688 -54.378906 14.796875 -55.203125 C 16.660156 -56.035156 18.660156 -56.769531 20.796875 -57.40625 C 22.941406 -58.039062 25.160156 -58.535156 27.453125 -58.890625 C 29.753906 -59.242188 32.050781 -59.421875 34.34375 -59.421875 C 38.15625 -59.421875 41.171875 -58.6875 43.390625 -57.21875 C 45.609375 -55.757812 46.71875 -53.367188 46.71875 -50.046875 C 46.71875 -48.929688 46.554688 -47.835938 46.234375 -46.765625 C 45.921875 -45.703125 45.523438 -44.734375 45.046875 -43.859375 C 43.378906 -43.859375 41.675781 -43.78125 39.9375 -43.625 C 38.195312 -43.46875 36.492188 -43.226562 34.828125 -42.90625 C 33.160156 -42.59375 31.59375 -42.253906 30.125 -41.890625 C 28.664062 -41.535156 27.421875 -41.125 26.390625 -40.65625 Z M 26.390625 -0.125 "/></g></g></g><g fill="#000000" fill-opacity="1"><g transform="translate(839.370362, 101.747476)"><g><path d="M 36.734375 1.90625 C 32.054688 1.90625 27.710938 1.253906 23.703125 -0.046875 C 19.703125 -1.359375 16.21875 -3.320312 13.25 -5.9375 C 10.28125 -8.550781 7.941406 -11.835938 6.234375 -15.796875 C 4.535156 -19.765625 3.6875 -24.40625 3.6875 -29.71875 C 3.6875 -34.945312 4.535156 -39.441406 6.234375 -43.203125 C 7.941406 -46.960938 10.179688 -50.050781 12.953125 -52.46875 C 15.722656 -54.894531 18.890625 -56.679688 22.453125 -57.828125 C 26.023438 -58.972656 29.675781 -59.546875 33.40625 -59.546875 C 37.601562 -59.546875 41.425781 -58.910156 44.875 -57.640625 C 48.320312 -56.378906 51.289062 -54.640625 53.78125 -52.421875 C 56.28125 -50.203125 58.222656 -47.546875 59.609375 -44.453125 C 60.992188 -41.359375 61.6875 -37.988281 61.6875 -34.34375 C 61.6875 -31.65625 60.929688 -29.597656 59.421875 -28.171875 C 57.921875 -26.742188 55.820312 -25.832031 53.125 -25.4375 L 23.765625 -21.03125 C 24.640625 -18.414062 26.421875 -16.453125 29.109375 -15.140625 C 31.804688 -13.835938 34.898438 -13.1875 38.390625 -13.1875 C 41.640625 -13.1875 44.707031 -13.601562 47.59375 -14.4375 C 50.488281 -15.269531 52.847656 -16.242188 54.671875 -17.359375 C 55.941406 -16.566406 57.007812 -15.457031 57.875 -14.03125 C 58.75 -12.601562 59.1875 -11.097656 59.1875 -9.515625 C 59.1875 -5.941406 57.523438 -3.285156 54.203125 -1.546875 C 51.660156 -0.203125 48.804688 0.707031 45.640625 1.1875 C 42.472656 1.664062 39.503906 1.90625 36.734375 1.90625 Z M 33.40625 -44.8125 C 31.5 -44.8125 29.851562 -44.492188 28.46875 -43.859375 C 27.082031 -43.222656 25.953125 -42.410156 25.078125 -41.421875 C 24.203125 -40.429688 23.546875 -39.320312 23.109375 -38.09375 C 22.679688 -36.863281 22.425781 -35.613281 22.34375 -34.34375 L 42.671875 -37.671875 C 42.429688 -39.265625 41.554688 -40.851562 40.046875 -42.4375 C 38.546875 -44.019531 36.332031 -44.8125 33.40625 -44.8125 Z M 33.40625 -44.8125 "/></g></g></g><g fill="#000000" fill-opacity="1"><g transform="translate(904.621553, 101.747476)"><g/></g></g><g fill="#000000" fill-opacity="1"><g transform="translate(159.003648, 208.14223)"><g/></g></g><g fill="#000000" fill-opacity="1"><g transform="translate(182.780913, 208.14223)"><g><path d="M 72.140625 -0.46875 C 71.273438 -0.238281 69.910156 -0.00390625 68.046875 0.234375 C 66.179688 0.472656 64.335938 0.59375 62.515625 0.59375 C 60.691406 0.59375 59.085938 0.453125 57.703125 0.171875 C 56.316406 -0.0976562 55.148438 -0.585938 54.203125 -1.296875 C 53.253906 -2.015625 52.539062 -3.007812 52.0625 -4.28125 C 51.582031 -5.550781 51.34375 -7.210938 51.34375 -9.265625 L 51.34375 -27.8125 L 28.53125 -27.8125 L 28.53125 -0.46875 C 27.65625 -0.238281 26.285156 -0.00390625 24.421875 0.234375 C 22.554688 0.472656 20.71875 0.59375 18.90625 0.59375 C 17.082031 0.59375 15.472656 0.453125 14.078125 0.171875 C 12.691406 -0.0976562 11.523438 -0.585938 10.578125 -1.296875 C 9.628906 -2.015625 8.914062 -3.007812 8.4375 -4.28125 C 7.957031 -5.550781 7.71875 -7.210938 7.71875 -9.265625 L 7.71875 -72.03125 C 8.59375 -72.1875 9.976562 -72.398438 11.875 -72.671875 C 13.78125 -72.953125 15.609375 -73.09375 17.359375 -73.09375 C 19.179688 -73.09375 20.785156 -72.953125 22.171875 -72.671875 C 23.554688 -72.398438 24.722656 -71.90625 25.671875 -71.1875 C 26.617188 -70.476562 27.332031 -69.488281 27.8125 -68.21875 C 28.289062 -66.957031 28.53125 -65.296875 28.53125 -63.234375 L 28.53125 -44.21875 L 51.34375 -44.21875 L 51.34375 -72.03125 C 52.21875 -72.1875 53.601562 -72.398438 55.5 -72.671875 C 57.40625 -72.953125 59.226562 -73.09375 60.96875 -73.09375 C 62.789062 -73.09375 64.394531 -72.953125 65.78125 -72.671875 C 67.175781 -72.398438 68.347656 -71.90625 69.296875 -71.1875 C 70.242188 -70.476562 70.953125 -69.488281 71.421875 -68.21875 C 71.898438 -66.957031 72.140625 -65.296875 72.140625 -63.234375 Z M 72.140625 -0.46875 "/></g></g></g><g fill="#000000" fill-opacity="1"><g transform="translate(262.648856, 208.14223)"><g><path d="M 4.15625 -36.140625 C 4.15625 -42.316406 5.125 -47.78125 7.0625 -52.53125 C 9.007812 -57.289062 11.664062 -61.273438 15.03125 -64.484375 C 18.40625 -67.691406 22.367188 -70.125 26.921875 -71.78125 C 31.472656 -73.445312 36.40625 -74.28125 41.71875 -74.28125 C 47.03125 -74.28125 51.960938 -73.445312 56.515625 -71.78125 C 61.078125 -70.125 65.0625 -67.691406 68.46875 -64.484375 C 71.875 -61.273438 74.546875 -57.289062 76.484375 -52.53125 C 78.421875 -47.78125 79.390625 -42.316406 79.390625 -36.140625 C 79.390625 -29.953125 78.4375 -24.460938 76.53125 -19.671875 C 74.632812 -14.878906 72.003906 -10.878906 68.640625 -7.671875 C 65.273438 -4.460938 61.289062 -2.023438 56.6875 -0.359375 C 52.09375 1.304688 47.101562 2.140625 41.71875 2.140625 C 36.332031 2.140625 31.335938 1.289062 26.734375 -0.40625 C 22.140625 -2.113281 18.175781 -4.59375 14.84375 -7.84375 C 11.519531 -11.09375 8.90625 -15.09375 7 -19.84375 C 5.101562 -24.601562 4.15625 -30.035156 4.15625 -36.140625 Z M 25.5625 -36.140625 C 25.5625 -28.921875 27.023438 -23.53125 29.953125 -19.96875 C 32.878906 -16.40625 36.800781 -14.625 41.71875 -14.625 C 46.707031 -14.625 50.664062 -16.40625 53.59375 -19.96875 C 56.53125 -23.53125 58 -28.921875 58 -36.140625 C 58 -43.265625 56.550781 -48.609375 53.65625 -52.171875 C 50.769531 -55.742188 46.832031 -57.53125 41.84375 -57.53125 C 36.925781 -57.53125 32.984375 -55.765625 30.015625 -52.234375 C 27.046875 -48.710938 25.5625 -43.347656 25.5625 -36.140625 Z M 25.5625 -36.140625 "/></g></g></g><g fill="#000000" fill-opacity="1"><g transform="translate(346.201173, 208.14223)"><g><path d="M 28.40625 -23.296875 L 28.40625 -0.46875 C 27.53125 -0.238281 26.160156 -0.00390625 24.296875 0.234375 C 22.441406 0.472656 20.601562 0.59375 18.78125 0.59375 C 16.957031 0.59375 15.351562 0.453125 13.96875 0.171875 C 12.582031 -0.0976562 11.429688 -0.585938 10.515625 -1.296875 C 9.609375 -2.015625 8.914062 -3.007812 8.4375 -4.28125 C 7.957031 -5.550781 7.71875 -7.210938 7.71875 -9.265625 L 7.71875 -65.25 C 7.71875 -66.914062 8.171875 -68.203125 9.078125 -69.109375 C 9.992188 -70.023438 11.25 -70.757812 12.84375 -71.3125 C 15.53125 -72.257812 18.65625 -72.953125 22.21875 -73.390625 C 25.789062 -73.828125 29.597656 -74.046875 33.640625 -74.046875 C 44.578125 -74.046875 52.816406 -71.75 58.359375 -67.15625 C 63.910156 -62.5625 66.6875 -56.34375 66.6875 -48.5 C 66.6875 -43.582031 65.414062 -39.378906 62.875 -35.890625 C 60.34375 -32.410156 57.332031 -29.71875 53.84375 -27.8125 C 56.695312 -23.925781 59.507812 -20.28125 62.28125 -16.875 C 65.050781 -13.46875 67.226562 -10.378906 68.8125 -7.609375 C 68.019531 -4.835938 66.570312 -2.71875 64.46875 -1.25 C 62.375 0.21875 60.019531 0.953125 57.40625 0.953125 C 55.664062 0.953125 54.160156 0.753906 52.890625 0.359375 C 51.617188 -0.0351562 50.507812 -0.585938 49.5625 -1.296875 C 48.613281 -2.015625 47.742188 -2.890625 46.953125 -3.921875 C 46.160156 -4.953125 45.40625 -6.0625 44.6875 -7.25 L 34.703125 -23.296875 Z M 35.890625 -39.109375 C 38.898438 -39.109375 41.273438 -39.878906 43.015625 -41.421875 C 44.765625 -42.960938 45.640625 -45.238281 45.640625 -48.25 C 45.640625 -51.269531 44.664062 -53.550781 42.71875 -55.09375 C 40.78125 -56.632812 37.710938 -57.40625 33.515625 -57.40625 C 32.328125 -57.40625 31.375 -57.363281 30.65625 -57.28125 C 29.945312 -57.207031 29.15625 -57.09375 28.28125 -56.9375 L 28.28125 -39.109375 Z M 35.890625 -39.109375 "/></g></g></g><g fill="#000000" fill-opacity="1"><g transform="translate(418.581502, 208.14223)"><g><path d="M 28.53125 -0.46875 C 27.65625 -0.238281 26.285156 -0.00390625 24.421875 0.234375 C 22.554688 0.472656 20.71875 0.59375 18.90625 0.59375 C 17.082031 0.59375 15.472656 0.453125 14.078125 0.171875 C 12.691406 -0.0976562 11.523438 -0.585938 10.578125 -1.296875 C 9.628906 -2.015625 8.914062 -3.007812 8.4375 -4.28125 C 7.957031 -5.550781 7.71875 -7.210938 7.71875 -9.265625 L 7.71875 -72.03125 C 8.59375 -72.1875 9.976562 -72.398438 11.875 -72.671875 C 13.78125 -72.953125 15.609375 -73.09375 17.359375 -73.09375 C 19.179688 -73.09375 20.785156 -72.953125 22.171875 -72.671875 C 23.554688 -72.398438 24.722656 -71.90625 25.671875 -71.1875 C 26.617188 -70.476562 27.332031 -69.488281 27.8125 -68.21875 C 28.289062 -66.957031 28.53125 -65.296875 28.53125 -63.234375 Z M 28.53125 -0.46875 "/></g></g></g><g fill="#000000" fill-opacity="1"><g transform="translate(454.831059, 208.14223)"><g><path d="M 36.609375 -55.390625 L 7.375 -55.390625 C 6.8125 -56.265625 6.289062 -57.453125 5.8125 -58.953125 C 5.34375 -60.460938 5.109375 -62.046875 5.109375 -63.703125 C 5.109375 -66.796875 5.800781 -69.015625 7.1875 -70.359375 C 8.570312 -71.710938 10.375 -72.390625 12.59375 -72.390625 L 56.9375 -72.390625 C 60.414062 -69.535156 62.15625 -65.726562 62.15625 -60.96875 C 62.15625 -58.988281 61.695312 -57.023438 60.78125 -55.078125 C 59.875 -53.140625 58.710938 -51.300781 57.296875 -49.5625 L 30.3125 -17 L 60.734375 -17 C 61.285156 -16.125 61.800781 -14.929688 62.28125 -13.421875 C 62.757812 -11.921875 63 -10.335938 63 -8.671875 C 63 -5.585938 62.300781 -3.367188 60.90625 -2.015625 C 59.519531 -0.671875 57.71875 0 55.5 0 L 8.671875 0 C 7.328125 -1.101562 6.21875 -2.609375 5.34375 -4.515625 C 4.476562 -6.421875 4.046875 -8.597656 4.046875 -11.046875 C 4.046875 -13.035156 4.554688 -15.054688 5.578125 -17.109375 C 6.609375 -19.171875 7.835938 -21.078125 9.265625 -22.828125 Z M 36.609375 -55.390625 "/></g></g></g><g fill="#000000" fill-opacity="1"><g transform="translate(519.961335, 208.14223)"><g><path d="M 4.15625 -36.140625 C 4.15625 -42.316406 5.125 -47.78125 7.0625 -52.53125 C 9.007812 -57.289062 11.664062 -61.273438 15.03125 -64.484375 C 18.40625 -67.691406 22.367188 -70.125 26.921875 -71.78125 C 31.472656 -73.445312 36.40625 -74.28125 41.71875 -74.28125 C 47.03125 -74.28125 51.960938 -73.445312 56.515625 -71.78125 C 61.078125 -70.125 65.0625 -67.691406 68.46875 -64.484375 C 71.875 -61.273438 74.546875 -57.289062 76.484375 -52.53125 C 78.421875 -47.78125 79.390625 -42.316406 79.390625 -36.140625 C 79.390625 -29.953125 78.4375 -24.460938 76.53125 -19.671875 C 74.632812 -14.878906 72.003906 -10.878906 68.640625 -7.671875 C 65.273438 -4.460938 61.289062 -2.023438 56.6875 -0.359375 C 52.09375 1.304688 47.101562 2.140625 41.71875 2.140625 C 36.332031 2.140625 31.335938 1.289062 26.734375 -0.40625 C 22.140625 -2.113281 18.175781 -4.59375 14.84375 -7.84375 C 11.519531 -11.09375 8.90625 -15.09375 7 -19.84375 C 5.101562 -24.601562 4.15625 -30.035156 4.15625 -36.140625 Z M 25.5625 -36.140625 C 25.5625 -28.921875 27.023438 -23.53125 29.953125 -19.96875 C 32.878906 -16.40625 36.800781 -14.625 41.71875 -14.625 C 46.707031 -14.625 50.664062 -16.40625 53.59375 -19.96875 C 56.53125 -23.53125 58 -28.921875 58 -36.140625 C 58 -43.265625 56.550781 -48.609375 53.65625 -52.171875 C 50.769531 -55.742188 46.832031 -57.53125 41.84375 -57.53125 C 36.925781 -57.53125 32.984375 -55.765625 30.015625 -52.234375 C 27.046875 -48.710938 25.5625 -43.347656 25.5625 -36.140625 Z M 25.5625 -36.140625 "/></g></g></g><g fill="#000000" fill-opacity="1"><g transform="translate(603.513664, 208.14223)"><g><path d="M 72.984375 -2.5 C 71.867188 -1.382812 70.257812 -0.53125 68.15625 0.0625 C 66.0625 0.65625 63.550781 0.953125 60.625 0.953125 C 57.6875 0.953125 54.910156 0.519531 52.296875 -0.34375 C 49.679688 -1.21875 47.539062 -3.320312 45.875 -6.65625 L 34.109375 -30.671875 C 32.921875 -33.117188 31.851562 -35.429688 30.90625 -37.609375 C 29.957031 -39.796875 28.925781 -42.316406 27.8125 -45.171875 L 27.09375 -45.046875 C 27.414062 -40.765625 27.59375 -36.40625 27.625 -31.96875 C 27.664062 -27.53125 27.6875 -23.175781 27.6875 -18.90625 L 27.6875 -0.46875 C 26.820312 -0.238281 25.492188 -0.00390625 23.703125 0.234375 C 21.921875 0.472656 20.160156 0.59375 18.421875 0.59375 C 16.679688 0.59375 15.132812 0.472656 13.78125 0.234375 C 12.4375 -0.00390625 11.328125 -0.476562 10.453125 -1.1875 C 9.585938 -1.90625 8.914062 -2.875 8.4375 -4.09375 C 7.957031 -5.320312 7.71875 -6.929688 7.71875 -8.921875 L 7.71875 -68.34375 C 8.832031 -69.925781 10.535156 -71.113281 12.828125 -71.90625 C 15.128906 -72.695312 17.585938 -73.09375 20.203125 -73.09375 C 23.140625 -73.09375 25.929688 -72.632812 28.578125 -71.71875 C 31.234375 -70.8125 33.351562 -68.734375 34.9375 -65.484375 L 46.828125 -41.484375 C 48.015625 -39.023438 49.082031 -36.707031 50.03125 -34.53125 C 50.988281 -32.351562 52.019531 -29.835938 53.125 -26.984375 L 53.71875 -27.09375 C 53.40625 -31.375 53.207031 -35.65625 53.125 -39.9375 C 53.050781 -44.21875 53.015625 -48.5 53.015625 -52.78125 L 53.015625 -72.03125 C 53.878906 -72.269531 55.203125 -72.503906 56.984375 -72.734375 C 58.773438 -72.972656 60.539062 -73.09375 62.28125 -73.09375 C 65.769531 -73.09375 68.425781 -72.476562 70.25 -71.25 C 72.070312 -70.019531 72.984375 -67.46875 72.984375 -63.59375 Z M 72.984375 -2.5 "/></g></g></g><g fill="#000000" fill-opacity="1"><g transform="translate(684.21356, 208.14223)"><g><path d="M 28.171875 -28.640625 C 24.679688 -29.828125 21.507812 -31.035156 18.65625 -32.265625 C 15.800781 -33.492188 13.34375 -34.976562 11.28125 -36.71875 C 9.226562 -38.46875 7.625 -40.550781 6.46875 -42.96875 C 5.320312 -45.382812 4.75 -48.335938 4.75 -51.828125 C 4.75 -58.554688 7.34375 -63.941406 12.53125 -67.984375 C 17.726562 -72.023438 25 -74.046875 34.34375 -74.046875 C 37.757812 -74.046875 40.929688 -73.804688 43.859375 -73.328125 C 46.785156 -72.859375 49.300781 -72.128906 51.40625 -71.140625 C 53.507812 -70.148438 55.15625 -68.878906 56.34375 -67.328125 C 57.53125 -65.785156 58.125 -63.984375 58.125 -61.921875 C 58.125 -59.859375 57.644531 -58.09375 56.6875 -56.625 C 55.738281 -55.164062 54.59375 -53.921875 53.25 -52.890625 C 51.507812 -54.003906 49.171875 -54.972656 46.234375 -55.796875 C 43.304688 -56.628906 40.097656 -57.046875 36.609375 -57.046875 C 33.046875 -57.046875 30.429688 -56.550781 28.765625 -55.5625 C 27.097656 -54.570312 26.265625 -53.328125 26.265625 -51.828125 C 26.265625 -50.640625 26.78125 -49.664062 27.8125 -48.90625 C 28.84375 -48.15625 30.390625 -47.460938 32.453125 -46.828125 L 38.75 -44.8125 C 46.195312 -42.4375 51.921875 -39.40625 55.921875 -35.71875 C 59.921875 -32.03125 61.921875 -27.019531 61.921875 -20.6875 C 61.921875 -13.945312 59.265625 -8.492188 53.953125 -4.328125 C 48.648438 -0.171875 40.847656 1.90625 30.546875 1.90625 C 26.898438 1.90625 23.507812 1.609375 20.375 1.015625 C 17.25 0.421875 14.515625 -0.445312 12.171875 -1.59375 C 9.835938 -2.75 8.015625 -4.175781 6.703125 -5.875 C 5.398438 -7.582031 4.75 -9.546875 4.75 -11.765625 C 4.75 -14.066406 5.421875 -16.03125 6.765625 -17.65625 C 8.117188 -19.28125 9.585938 -20.523438 11.171875 -21.390625 C 13.390625 -19.648438 16.101562 -18.144531 19.3125 -16.875 C 22.519531 -15.601562 26.023438 -14.96875 29.828125 -14.96875 C 33.710938 -14.96875 36.445312 -15.5625 38.03125 -16.75 C 39.613281 -17.945312 40.40625 -19.335938 40.40625 -20.921875 C 40.40625 -22.503906 39.769531 -23.710938 38.5 -24.546875 C 37.238281 -25.378906 35.457031 -26.191406 33.15625 -26.984375 Z M 28.171875 -28.640625 "/></g></g></g><g fill="#55bab7" fill-opacity="1"><g transform="translate(749.700579, 208.14223)"><g><path d="M 2.609375 -9.625 C 2.609375 -12.957031 3.640625 -15.734375 5.703125 -17.953125 C 7.765625 -20.171875 10.578125 -21.28125 14.140625 -21.28125 C 17.710938 -21.28125 20.523438 -20.171875 22.578125 -17.953125 C 24.640625 -15.734375 25.671875 -12.957031 25.671875 -9.625 C 25.671875 -6.300781 24.640625 -3.53125 22.578125 -1.3125 C 20.523438 0.90625 17.710938 2.015625 14.140625 2.015625 C 10.578125 2.015625 7.765625 0.90625 5.703125 -1.3125 C 3.640625 -3.53125 2.609375 -6.300781 2.609375 -9.625 Z M 2.609375 -9.625 "/></g></g></g></svg>